<?xml version="1.0" standalone="no"?>
<!DOCTYPE svg PUBLIC "-//W3C//DTD SVG 20010904//EN"
 "http://www.w3.org/TR/2001/REC-SVG-20010904/DTD/svg10.dtd">
<svg version="1.0" xmlns="http://www.w3.org/2000/svg"
 width="900.000000pt" height="960.000000pt" viewBox="0 0 900.000000 960.000000"
 preserveAspectRatio="xMidYMid meet">

<g transform="translate(0.000000,960.000000) scale(0.100000,-0.100000)"
fill="#000000" stroke="none">
<path d="M8876 7897 c-65 -270 -147 -611 -182 -757 -70 -288 -402 -1672 -461
-1915 -120 -503 -126 -526 -137 -514 -2 2 -93 132 -201 289 -109 157 -293 422
-409 589 -313 451 -353 509 -409 593 -29 43 -55 78 -58 78 -4 0 -9 -10 -12
-22 -2 -13 -36 -113 -75 -223 -150 -426 -357 -1016 -462 -1315 -104 -298 -396
-1131 -615 -1755 -108 -307 -198 -561 -200 -564 -3 -2 -6 -2 -8 0 -2 2 -37 43
-78 90 -40 47 -179 208 -308 358 -129 149 -238 268 -242 264 -4 -4 -78 -159
-164 -343 -86 -184 -168 -359 -182 -388 -14 -29 -29 -52 -33 -50 -9 3 -62 80
-565 813 -121 176 -302 439 -402 585 -101 146 -185 270 -187 275 -3 6 -9 3
-15 -5 -5 -8 -149 -220 -320 -470 -170 -250 -386 -567 -480 -705 -244 -359
-325 -475 -329 -475 -4 0 -104 78 -355 278 -66 52 -122 90 -127 86 -7 -8 -573
-979 -632 -1084 -14 -25 -45 -79 -70 -120 -25 -41 -143 -244 -263 -450 -119
-206 -248 -427 -285 -490 -161 -276 -291 -500 -296 -514 -6 -15 411 -16 4340
-16 l4346 0 0 4185 c0 2302 -1 4185 -2 4185 -2 0 -56 -222 -122 -493z"/>
</g>
</svg>
