<svg fill="none" height="387" viewBox="0 0 375 387" width="375" xmlns="http://www.w3.org/2000/svg">
    <path
        d="M0 -68H375V313.953C375 313.953 329.5 337.146 280.5 341.094C231.5 345.042 198.5 387.481 166.5 386.001C134.5 384.52 116.42 364.637 87 357.132C51.248 348.012 0 348.003 0 348.003V-68Z"
        fill="#AF2422" fill-opacity="0.17" />
    <path
        d="M0 -68H375V284.344C375 284.344 329.5 307.538 280.5 311.485C231.5 315.433 198.5 357.872 166.5 356.392C134.5 354.912 116.42 335.028 87 327.523C51.248 318.403 0 318.394 0 318.394V-68Z"
        fill="#AF2422" fill-opacity="0.17" />
    <path
        d="M0 -68H375V249.8C375 249.8 329.5 277.929 280.5 281.876C231.5 285.824 196.5 321.355 164.5 319.874C132.5 318.394 116.42 307.393 87 299.888C51.248 290.768 0 311.979 0 311.979V-68Z"
        fill="#AF2422" fill-opacity="0.5" />
    <path
        d="M44.5 288.785C60.7287 279.631 113.826 256.448 169.5 253.748C226.632 250.977 239.245 264.956 284.5 262.631C317.059 260.958 367.5 253.748 367.5 253.748C367.5 253.748 329.5 277.929 280.5 281.877C231.5 285.824 196.5 321.355 164.5 319.874C132.5 318.394 116.42 307.393 87 299.889C51.248 290.768 0 311.979 0 311.979C0 311.979 27.9789 298.104 44.5 288.785Z"
        fill="white" fill-opacity="0.3" />
</svg>
