<?xml version="1.0" encoding="UTF-8" standalone="no"?>
<!DOCTYPE svg PUBLIC "-//W3C//DTD SVG 1.1//EN" "http://www.w3.org/Graphics/SVG/1.1/DTD/svg11.dtd">
<svg width="100%" height="100%" viewBox="0 0 1563 3384" version="1.1" xmlns="http://www.w3.org/2000/svg" xmlns:xlink="http://www.w3.org/1999/xlink" xml:space="preserve" xmlns:serif="http://www.serif.com/" style="fill-rule:evenodd;clip-rule:evenodd;stroke-linejoin:round;stroke-miterlimit:2;">
    <g transform="matrix(1.38889,0,0,1.38889,0,0)">
        <rect x="0" y="0" width="1125" height="2436" style="fill:white;"/>
        <g transform="matrix(1.87188,0,0,1.87188,-202.906,-84.7565)">
            <g transform="matrix(3,0,0,3,-131.05,-85.974)">
                <clipPath id="_clip1">
                    <path d="M69.683,42.987C67.387,42.987 65.525,44.849 65.525,47.146L65.525,445.786C65.525,448.083 67.387,449.945 69.683,449.945L290.28,449.945C292.576,449.945 294.439,448.083 294.439,445.786L294.439,47.146C294.439,44.849 292.576,42.987 290.28,42.987L69.683,42.987Z" clip-rule="nonzero"/>
                </clipPath>
                <g clip-path="url(#_clip1)">
                    <g opacity="0.2">
                        <g transform="matrix(-28.2736,-354.834,-354.834,28.2736,201.011,362.355)">
                            <path d="M0.365,0.411C0.365,0.411 0.188,0.307 0.177,0.181C0.167,0.054 0.225,-0.018 0.217,-0.119C0.209,-0.22 0.105,-0.26 0.098,-0.347L0.903,-0.411L0.965,0.363L0.365,0.411Z" style="fill:url(#_Linear2);fill-rule:nonzero;"/>
                        </g>
                    </g>
                    <g opacity="0.5">
                        <g transform="matrix(28.2736,-354.834,354.834,28.2736,168.33,343.447)">
                            <path d="M0.365,0.411C0.365,0.411 0.188,0.307 0.177,0.181C0.167,0.054 0.225,-0.018 0.217,-0.119C0.209,-0.22 0.105,-0.26 0.098,-0.347L0.903,-0.411L0.965,0.363L0.365,0.411Z" style="fill:url(#_Linear3);fill-rule:nonzero;"/>
                        </g>
                    </g>
                </g>
            </g>
            <g transform="matrix(-84.8209,-1064.5,-1064.5,84.8209,446.915,907.839)">
                <path d="M0.835,0.28C0.835,0.286 0.83,0.292 0.824,0.293L0.281,0.336C0.234,0.294 0.183,0.234 0.177,0.168C0.167,0.041 0.225,-0.031 0.217,-0.132C0.211,-0.205 0.155,-0.246 0.121,-0.297L0.773,-0.348C0.779,-0.349 0.785,-0.344 0.786,-0.338L0.835,0.28Z" style="fill:url(#_Linear4);fill-rule:nonzero;"/>
            </g>
        </g>
    </g>
    <defs>
        <linearGradient id="_Linear2" x1="0" y1="0" x2="1" y2="0" gradientUnits="userSpaceOnUse" gradientTransform="matrix(1,0,0,-1,0,6.53155e-07)"><stop offset="0" style="stop-color:rgb(140,201,254);stop-opacity:1"/><stop offset="1" style="stop-color:rgb(66,60,181);stop-opacity:1"/></linearGradient>
        <linearGradient id="_Linear3" x1="0" y1="0" x2="1" y2="0" gradientUnits="userSpaceOnUse" gradientTransform="matrix(1,0,0,-1,0,-2.10462e-06)"><stop offset="0" style="stop-color:rgb(140,201,254);stop-opacity:1"/><stop offset="1" style="stop-color:rgb(3,1,116);stop-opacity:1"/></linearGradient>
        <linearGradient id="_Linear4" x1="0" y1="0" x2="1" y2="0" gradientUnits="userSpaceOnUse" gradientTransform="matrix(1,0,0,-1,0,-0.0130889)"><stop offset="0" style="stop-color:rgb(27,32,99);stop-opacity:1"/><stop offset="1" style="stop-color:rgb(13,14,39);stop-opacity:1"/></linearGradient>
    </defs>
</svg>
