<svg width="145" height="105" viewBox="0 0 145 105" fill="none" xmlns="http://www.w3.org/2000/svg">
<path d="M129.594 15.6765L129.595 15.6765C130.596 15.6749 131.587 15.8659 132.511 16.2383C133.436 16.6107 134.276 17.157 134.983 17.8455C135.69 18.534 136.251 19.3512 136.634 20.2501C137.016 21.1489 137.214 22.1122 137.216 23.085L137.336 95.9058C137.338 96.8787 137.143 97.8426 136.763 98.7426C136.383 99.6427 135.825 100.462 135.12 101.152C134.416 101.843 133.578 102.392 132.654 102.767C131.731 103.143 130.741 103.337 129.74 103.338L9.04817 103.529C8.04735 103.531 7.05628 103.34 6.13164 102.967C5.20701 102.595 4.3673 102.048 3.66014 101.36C2.95301 100.671 2.39229 99.8541 2.00941 98.9552L1.5494 99.1511L2.00941 98.9552C1.62655 98.0563 1.42886 97.093 1.42732 96.1201L0.927316 96.1209L1.42732 96.1201L1.2939 15.3796V15.3792V11.6372C1.62181 12.1909 2.02051 12.7147 2.47574 13.189C3.87934 14.6512 5.86628 15.692 8.09477 15.692H8.09484L129.594 15.6765Z" fill="#699CFF" stroke="black"/>
<path d="M91.4239 44.6859L137.936 44.6122C139.439 44.6098 140.879 45.1907 141.94 46.2239C143.001 47.2567 143.596 48.6565 143.599 50.1149L143.63 68.8537C143.632 70.312 143.041 71.7137 141.984 72.7499C140.926 73.7864 139.488 74.3719 137.986 74.3743L91.4734 74.448C91.2796 74.4483 91.0958 74.3733 90.9617 74.2428C90.828 74.1126 90.7547 73.9382 90.7544 73.7584L90.7073 45.3778C90.707 45.1981 90.7797 45.0234 90.9129 44.8928C91.0466 44.7618 91.2302 44.6862 91.4239 44.6859Z" fill="#F3F3F3" stroke="black" stroke-width="0.9"/>
<path d="M106.528 66.5636C110.497 66.5636 113.714 63.421 113.714 59.5445C113.714 55.6679 110.497 52.5254 106.528 52.5254C102.56 52.5254 99.3423 55.6679 99.3423 59.5445C99.3423 63.421 102.56 66.5636 106.528 66.5636Z" fill="#699CFF"/>
<path d="M6.9671 0.739795H112.415C113.936 0.739795 115.393 1.33018 116.465 2.37782C117.537 3.42511 118.138 4.84326 118.138 6.31969V15.2721H8.72731C6.73924 15.2721 4.83465 14.5006 3.43202 13.1305C2.02974 11.7607 1.24395 9.90527 1.24395 7.97284V6.31969C1.24395 4.84326 1.84429 3.42511 2.91646 2.37782C3.98899 1.33018 5.44586 0.739795 6.9671 0.739795Z" fill="white" stroke="black" stroke-width="0.9"/>
</svg>
